<svg width="24" height="24" viewBox="0 0 24 24" fill="none" xmlns="http://www.w3.org/2000/svg">
<g clip-path="url(#clip0_2004_48)">
<path d="M12.0001 21C11.8685 21.0008 11.738 20.9755 11.6161 20.9258C11.4943 20.876 11.3835 20.8027 11.2901 20.71L3.52006 12.93C2.54542 11.9452 1.99872 10.6156 1.99872 9.22999C1.99872 7.84443 2.54542 6.51482 3.52006 5.52999C4.50232 4.5505 5.83289 4.00047 7.22006 4.00047C8.60722 4.00047 9.93779 4.5505 10.9201 5.52999L12.0001 6.60999L13.0801 5.52999C14.0623 4.5505 15.3929 4.00047 16.7801 4.00047C18.1672 4.00047 19.4978 4.5505 20.4801 5.52999C21.4547 6.51482 22.0014 7.84443 22.0014 9.22999C22.0014 10.6156 21.4547 11.9452 20.4801 12.93L12.7101 20.71C12.6166 20.8027 12.5058 20.876 12.384 20.9258C12.2621 20.9755 12.1317 21.0008 12.0001 21Z" fill="black"/>
</g>
<defs>
<clipPath id="clip0_2004_48">
<rect width="24" height="24" fill="white"/>
</clipPath>
</defs>
</svg>
